<svg width="339" height="88" viewBox="0 0 339 88" fill="none" xmlns="http://www.w3.org/2000/svg">
<path d="M87.736 17.3919C87.736 17.2213 87.864 16.6666 88.12 15.7279C88.4613 14.7893 88.6747 14.2773 88.76 14.1919C88.9307 13.7653 89.0587 13.4239 89.144 13.1679C89.2293 12.8266 89.4853 12.3573 89.912 11.7599C90.2533 11.3333 90.68 10.8213 91.192 10.2239C91.7893 9.6266 92.1733 9.19994 92.344 8.94394C92.6853 8.43194 93.0693 7.96262 93.496 7.53595C93.8373 7.10928 94.3493 6.68262 95.032 6.25595C95.7147 5.82928 96.2693 5.40259 96.696 4.97592C97.8907 4.63459 98.9147 4.29327 99.768 3.95193C100.707 3.6106 101.603 3.43994 102.456 3.43994C104.163 3.43994 105.784 3.4826 107.32 3.56793C108.941 3.65326 110.349 3.90927 111.544 4.33594C112.824 4.33594 113.891 4.5066 114.744 4.84793C115.597 5.10393 116.451 5.44528 117.304 5.87195C117.731 6.72528 118.285 7.40792 118.968 7.91992C119.651 8.34659 120.205 8.77328 120.632 9.19995L121.4 9.96793C121.997 9.54126 122.253 9.07193 122.168 8.55994C122.168 8.04794 122.253 7.57861 122.424 7.15195C122.595 6.63995 122.68 6.21328 122.68 5.87195C122.68 5.44528 122.765 5.14659 122.936 4.97592C123.192 4.89059 123.491 4.89059 123.832 4.97592C124.173 4.97592 124.515 4.97592 124.856 4.97592C125.624 4.97592 126.605 4.93326 127.8 4.84793C128.995 4.7626 129.891 4.80526 130.488 4.97592C130.659 5.06126 130.829 5.23195 131 5.48795C131.171 5.65861 131.256 5.78662 131.256 5.87195V6.76794C131.256 7.27995 131.256 7.96262 131.256 8.81595C131.341 9.58395 131.384 10.3946 131.384 11.2479C131.384 12.0159 131.341 12.7839 131.256 13.5519C131.256 14.3199 131.256 14.9599 131.256 15.4719C131.256 15.8986 131.213 16.6239 131.128 17.6479C131.128 18.6719 131.128 19.7813 131.128 20.9759C131.128 22.0853 131.128 23.1093 131.128 24.0479C131.128 24.9866 131.171 25.4986 131.256 25.5839C131.256 26.4373 131.213 27.3759 131.128 28.3999C131.043 29.4239 131.043 30.1493 131.128 30.5759L131.256 34.6719C131.341 35.2693 131.299 36.2079 131.128 37.4879C131.043 38.7679 131.085 40.2186 131.256 41.8399C131.341 42.4373 131.341 43.3333 131.256 44.5279C131.256 45.6373 131.213 46.8319 131.128 48.1119C131.128 49.3066 131.085 50.4159 131 51.4399C131 52.5493 131 53.3173 131 53.7439C131 55.3653 130.701 56.9867 130.104 58.608C129.592 60.3147 129.123 61.9786 128.696 63.5999C128.269 64.4532 127.843 65.2639 127.416 66.0319C126.989 66.7999 126.349 67.6532 125.496 68.5919C125.155 69.0186 124.771 69.5306 124.344 70.1279C123.917 70.8106 123.491 71.3652 123.064 71.7919C122.637 72.3892 121.869 73.0292 120.76 73.7119C119.736 74.4799 119.011 75.2052 118.584 75.8879C118.157 76.3999 117.432 76.8266 116.408 77.1679C115.384 77.5092 114.659 77.7226 114.232 77.8079L109.752 79.3439C108.984 79.7706 108.173 80.1119 107.32 80.3679C106.552 80.7092 105.571 80.9226 104.376 81.0079C104.205 81.0079 104.035 80.9652 103.864 80.8799C103.693 80.8799 103.523 80.9226 103.352 81.0079C102.499 81.0079 101.773 81.0932 101.176 81.2639C100.664 81.5199 99.9813 81.6479 99.128 81.6479H98.36C97.1653 81.6479 96.3547 81.6052 95.928 81.5199C95.5867 81.5199 94.6907 81.5626 93.24 81.6479C93.1547 81.6479 92.8987 81.6906 92.472 81.7759C92.0453 81.8612 91.832 81.8186 91.832 81.6479C91.832 80.0266 91.7467 78.5332 91.576 77.1679C91.4907 75.8026 91.448 74.4799 91.448 73.1999L92.344 72.4319H96.696C97.8907 72.0052 98.9573 71.7492 99.896 71.6639C100.92 71.5786 102.072 71.3226 103.352 70.8959C104.547 70.1279 105.613 69.3599 106.552 68.5919C107.576 67.8239 108.685 67.2266 109.88 66.7999C110.733 66.0319 111.544 65.2212 112.312 64.3679C113.08 63.5999 113.677 62.7893 114.104 61.9359C114.872 61.1679 115.341 60.3573 115.512 59.504C115.768 58.6507 116.109 57.7973 116.536 56.944C116.536 56.176 116.664 55.3653 116.92 54.512C117.176 53.744 117.304 52.9333 117.304 52.0799V48.752C117.304 48.3253 117.176 48.2399 116.92 48.4959C116.749 48.5813 116.621 48.6666 116.536 48.752C115.341 49.52 113.933 49.9466 112.312 50.032C110.691 50.2026 109.069 50.2879 107.448 50.2879H106.552C105.357 50.2026 104.205 49.9466 103.096 49.5199C101.987 49.2639 101.048 49.008 100.28 48.752C99.512 48.496 98.6587 48.1119 97.72 47.5999C97.464 47.4293 97.08 47.2586 96.568 47.088C96.056 46.832 95.2027 46.3626 94.008 45.6799L92.472 43.8879L89.656 40.8159C89.4 40.3893 89.144 39.8346 88.888 39.1519C88.7173 38.4693 88.4613 37.6586 88.12 36.7199C87.9493 36.2079 87.736 35.6533 87.48 35.0559C87.224 34.4586 87.0107 33.8186 86.84 33.1359V22.3839C86.84 21.9573 86.9253 21.4026 87.096 20.7199C87.352 19.9519 87.48 19.3973 87.48 19.0559C87.48 18.8853 87.5227 18.7146 87.608 18.5439C87.608 18.3733 87.608 18.2026 87.608 18.0319C87.6933 17.8613 87.736 17.6479 87.736 17.3919ZM99.448 25.4719C99.8747 25.4719 100.259 25.4293 100.6 25.3439C101.027 25.2586 101.453 25.0026 101.88 24.5759C102.051 24.2346 102.093 23.8933 102.008 23.5519C102.008 23.1253 102.093 22.8266 102.264 22.6559C102.691 21.9733 102.861 21.5466 102.776 21.3759C102.691 21.2053 102.648 20.9066 102.648 20.4799C102.648 20.0533 102.477 19.5413 102.136 18.9439C101.88 18.2613 101.539 17.7066 101.112 17.2799C100.685 16.8533 100.387 16.6399 100.216 16.6399C100.045 16.6399 99.4907 16.8533 98.552 17.2799C97.9547 17.8773 97.656 19.1146 97.656 20.9919C97.656 21.1626 97.6133 21.5466 97.528 22.1439C97.528 22.7413 97.6133 23.2959 97.784 23.8079C97.784 23.9786 97.9973 24.3199 98.424 24.8319C98.8507 25.2586 99.192 25.4719 99.448 25.4719Z" fill="black"/>
<path d="M86.84 33.1359V22.3839L74.8952 44.844L72 50.2879C76.6907 42.7719 86.2256 28.8191 86.84 33.1359Z" fill="black"/>
<path d="M135.692 49.1152C134.965 50.5722 134.22 51.8273 133.46 52.8804C132.7 53.9336 131.948 54.8966 131.206 55.7695C130.946 56.1807 130.649 56.4242 130.314 56.5C129.542 56.2046 128.689 55.8101 127.755 55.3165C126.778 54.8914 125.934 54.4067 125.223 53.8625C124.65 53.4048 124.033 53.0156 123.373 52.6949C122.67 52.4428 122.181 52.2302 121.907 52.0573C122.166 51.6461 122.37 51.2476 122.518 50.8617C122.665 50.4758 122.968 49.9962 123.426 49.4227C123.84 48.9177 124.208 48.3352 124.528 47.6753C124.918 47.0585 125.285 46.4761 125.631 45.9278L128.81 40.8912C129.736 39.2719 130.718 37.6399 131.755 35.9952C132.793 34.3506 133.451 33.2326 133.728 32.6411C134.049 31.9811 134.438 31.3644 134.896 30.7909C135.422 30.2607 135.88 29.6872 136.269 29.0705C136.806 28.0678 137.377 27.0869 137.982 26.1275C138.7 25.1429 139.361 24.1709 139.966 23.2115C140.485 22.3892 141.121 21.3054 141.874 19.9602C142.671 18.5464 143.397 17.4716 144.053 16.7358C144.688 16.9447 145.416 17.3086 146.238 17.8275C147.061 18.3465 147.973 18.8743 148.976 19.4112C149.773 19.8184 150.548 20.2598 151.302 20.7355C152.056 21.2112 152.604 21.5571 152.947 21.7733C153.084 21.8598 152.988 22.087 152.66 22.4549C152.444 22.7976 152.293 23.0374 152.206 23.1744C151.057 24.8444 150.105 26.3519 149.352 27.6972C148.642 28.9739 147.786 30.2542 146.784 31.5383C145.988 32.952 145.231 34.1512 144.514 35.1359C143.909 36.0953 143.105 37.2169 142.103 38.501C141.973 38.7066 141.627 39.2548 141.065 40.1456C140.503 41.0364 139.889 42.086 139.222 43.2941C138.599 44.4338 137.941 45.5518 137.249 46.6482C136.601 47.6761 136.082 48.4984 135.692 49.1152ZM143.237 11.5525C143.385 11.1666 143.675 10.631 144.107 9.94578C144.608 9.30377 145.096 8.60587 145.572 7.85208C145.788 7.50945 145.949 7.17945 146.053 6.8621C146.226 6.588 146.399 6.31391 146.572 6.0398C146.659 5.90275 146.723 5.79996 146.767 5.73143C146.878 5.70615 146.978 5.62498 147.064 5.48793L154.465 10.1582C154.807 10.3745 154.991 10.5384 155.017 10.6502C155.085 10.6935 155.011 10.8864 154.795 11.229L150.579 17.9103C150.125 17.7194 149.452 17.3428 148.561 16.7807C147.739 16.2617 146.882 15.7212 145.991 15.159C145.1 14.5969 144.278 14.0779 143.524 13.6022C142.882 13.1013 142.605 12.7823 142.691 12.6452C142.752 12.3964 142.934 12.0322 143.237 11.5525Z" fill="#101110"/>
<path d="M130.904 51.2716C131.584 50.0506 132.221 48.616 132.816 46.9677L134.169 44.136C134.77 42.8774 135.333 41.6001 135.855 40.304C136.416 38.9292 136.94 37.7306 137.429 36.708L138.331 34.8202C139.24 33.3223 139.958 32.0227 140.484 30.9215C141.127 29.7792 141.785 28.4027 142.458 26.792C143.367 25.294 144.12 23.8183 144.718 22.3648C145.354 20.8328 146.181 19.1023 147.199 17.1734L147.594 16.3475C147.898 15.9132 147.972 15.6584 147.814 15.5832L145.927 14.681C145.061 14.2675 144.177 13.8934 143.275 13.5585C142.136 13.1109 141.094 12.6616 140.15 12.2105C139.207 11.7594 138.382 11.4621 137.678 11.3187C137.07 12.1874 136.429 13.4272 135.756 15.0379C135.12 16.57 134.577 17.808 134.126 18.7519C133.599 19.8531 133.015 20.9748 132.372 22.1171C131.846 23.2183 131.359 24.3383 130.912 25.4771C130.573 26.185 130.156 26.8554 129.661 27.4881C129.244 28.1584 128.905 28.8664 128.646 29.6119C128.424 30.2787 127.862 31.556 126.959 33.4438C126.057 35.3316 125.213 37.1989 124.427 39.0456L120.706 46.8327C120.446 47.5782 120.127 48.2468 119.747 48.8385C119.33 49.5088 119.067 50.0594 118.958 50.4903C118.849 50.9212 118.681 51.3726 118.456 51.8445C118.77 51.9949 119.319 52.1606 120.102 52.3416C120.848 52.6012 121.556 52.9395 122.226 53.3565C123.054 53.8487 124.016 54.2604 125.114 54.5918C126.174 55.0018 127.135 55.3161 127.997 55.5347C128.346 55.4115 128.633 55.1139 128.858 54.642C129.542 53.616 130.224 52.4925 130.904 51.2716Z" fill="black"/>
<path d="M300.753 7.456C300.753 7.28533 300.881 7.072 301.137 6.816C301.222 6.73067 301.35 6.688 301.521 6.688C303.228 5.06667 304.934 3.82933 306.641 2.976C308.348 2.03733 310.225 1.35467 312.273 0.928001C314.748 -0.0106666 317.18 -0.0106666 319.569 0.928001C320.508 0.928001 321.233 1.09867 321.745 1.44C322.257 1.696 322.94 1.824 323.793 1.824C325.841 2.25067 327.548 3.01867 328.913 4.128C330.278 5.23733 331.601 6.60267 332.881 8.224C334.502 10.3573 335.654 12.4907 336.337 14.624C337.02 16.7573 337.788 19.0613 338.641 21.536V27.296C338.214 29.0027 337.916 30.496 337.745 31.776C337.66 33.056 337.404 34.2933 336.977 35.488C336.55 36.768 335.91 38.0053 335.057 39.2C334.289 40.3093 333.265 41.2907 331.985 42.144C330.193 43.936 328.017 45.3013 325.457 46.24C323.75 47.0933 322.214 47.776 320.849 48.288C319.484 48.7147 317.99 49.0987 316.369 49.44H302.417V52.896C302.417 54.944 302.374 56.992 302.289 59.04C302.204 61.088 301.948 63.1787 301.521 65.312V85.408C301.521 87.0293 300.668 87.84 298.961 87.84H291.665C291.238 84.8533 290.982 81.9947 290.897 79.264C290.812 76.6187 290.769 73.8453 290.769 70.944V46.24C290.598 44.192 290.513 42.272 290.513 40.48C290.513 38.6027 290.513 36.768 290.513 34.976C290.598 33.184 290.641 31.392 290.641 29.6C290.726 27.7227 290.684 25.76 290.513 23.712V21.024C290.513 20.4267 290.556 19.744 290.641 18.976C290.641 17.696 290.641 16.6293 290.641 15.776C290.641 14.8373 290.641 13.9413 290.641 13.088C290.641 12.2347 290.684 11.3387 290.769 10.4C290.854 9.46133 290.982 8.39467 291.153 7.2C291.153 6.77333 291.196 6.09067 291.281 5.152C291.366 4.21333 291.324 3.44533 291.153 2.848C291.153 2.25067 291.153 1.78133 291.153 1.44C291.238 1.09867 291.281 0.885333 291.281 0.799999C291.366 0.629332 291.452 0.501332 291.537 0.416C291.622 0.330667 291.708 0.202668 291.793 0.0320008C292.22 -0.053334 292.945 0.0319995 293.969 0.288001C294.993 0.544001 295.889 0.714666 296.657 0.799999C297.169 0.714666 297.766 0.672 298.449 0.672C299.217 0.672 299.985 0.757334 300.753 0.928001V7.456ZM323.409 23.456C323.324 22.0053 323.196 20.6827 323.025 19.488C322.854 18.2933 322.556 17.056 322.129 15.776C322.129 15.6907 322.086 15.5627 322.001 15.392C321.83 15.0507 321.617 14.88 321.361 14.88C320.422 14.112 319.228 13.6 317.777 13.344C316.412 13.0027 315.132 13.2587 313.937 14.112C312.657 15.3067 311.633 16.7147 310.865 18.336C310.097 19.872 309.713 21.4933 309.713 23.2V27.296C309.713 28.064 309.884 29.0027 310.225 30.112C310.566 31.2213 310.95 32.2027 311.377 33.056C311.377 33.4827 311.548 33.7813 311.889 33.952C312.316 34.0373 312.742 34.2933 313.169 34.72C314.79 35.1467 316.454 35.104 318.161 34.592C319.953 33.9947 321.276 32.672 322.129 30.624C322.556 29.4293 322.812 28.32 322.897 27.296C322.982 26.1867 323.153 24.9067 323.409 23.456Z" fill="black"/>
<path d="M284.947 52.512L284.051 52.64C283.624 52.7253 283.326 52.7253 283.155 52.64C283.07 52.64 282.686 52.64 282.003 52.64C281.918 52.64 281.662 52.6826 281.235 52.768C280.808 52.8533 280.339 52.9386 279.827 53.024C279.315 53.1093 278.76 53.1093 278.163 53.024C277.566 53.024 277.096 52.9386 276.755 52.768C276.328 52.768 276.03 52.7253 275.859 52.64C275.688 52.5546 275.39 52.512 274.963 52.512C274.536 52.1706 274.28 51.6586 274.195 50.976C274.195 50.2933 274.195 49.7386 274.195 49.312V46.112L273.171 47.52L270.867 49.696C270.014 50.2933 269.288 50.7626 268.691 51.104C268.179 51.5306 267.539 51.9573 266.771 52.384C265.491 53.152 264.083 53.664 262.547 53.92C261.096 54.176 259.731 54.304 258.451 54.304C257.171 54.304 255.806 54.048 254.355 53.536C252.99 53.024 251.752 52.5546 250.643 52.128C250.302 52.0426 249.96 51.872 249.619 51.616C249.363 51.4453 249.107 51.2746 248.851 51.104C248.339 50.6773 247.742 50.2506 247.059 49.824C246.462 49.3973 245.95 48.9706 245.523 48.544C245.267 48.3733 245.011 48.2026 244.755 48.032C244.584 47.776 244.328 47.5626 243.987 47.392C243.56 47.136 243.176 46.7093 242.835 46.112C242.408 45.1733 241.854 44.2773 241.171 43.424C240.574 42.4853 240.062 41.4186 239.635 40.224C239.379 39.2853 239.038 38.3893 238.611 37.536C238.184 36.6826 237.971 35.872 237.971 35.104C237.971 34.6773 237.928 33.952 237.843 32.928C237.758 31.904 237.715 31.1786 237.715 30.752C237.715 29.984 237.715 29.3866 237.715 28.96C237.8 28.5333 237.843 27.8933 237.843 27.04C237.843 26.6133 237.886 26.1866 237.971 25.76C238.142 25.248 238.312 24.608 238.483 23.84C238.654 22.9013 238.782 21.92 238.867 20.896C238.952 19.7866 239.08 18.8906 239.251 18.208C239.848 17.0986 240.232 16.416 240.403 16.16C240.659 15.904 240.872 15.4346 241.043 14.752C241.214 14.24 241.427 13.6 241.683 12.832C242.024 11.9786 242.494 11.3386 243.091 10.912C243.347 10.7413 243.731 10.4426 244.243 10.016C244.755 9.5893 245.267 9.11997 245.779 8.60797C246.376 8.09597 246.888 7.6693 247.315 7.32797C247.742 6.9013 248.04 6.68797 248.211 6.68797L250.515 5.66397C251.198 5.40797 251.966 5.2373 252.819 5.15197C253.672 4.9813 254.483 4.89597 255.251 4.89597L259.219 4.76797C259.646 4.76797 260.115 4.76797 260.627 4.76797C261.224 4.76797 261.608 4.81064 261.779 4.89597C262.206 4.89597 262.632 5.02397 263.059 5.27997C263.486 5.53597 263.912 5.66397 264.339 5.66397C264.766 5.66397 265.278 5.83464 265.875 6.17597C266.558 6.43197 267.112 6.7733 267.539 7.19997C268.392 7.5413 269.032 7.96797 269.459 8.47997C269.971 8.90664 270.44 9.3333 270.867 9.75997C271.294 10.1866 271.678 10.6133 272.019 11.04C272.446 11.3813 272.872 11.7653 273.299 12.192C273.299 12.448 273.47 12.6613 273.811 12.832C273.982 12.9173 274.11 13.0026 274.195 13.088C274.366 12.9173 274.451 12.576 274.451 12.064C274.536 11.552 274.707 11.0826 274.963 10.656C275.048 9.46131 275.091 8.39464 275.091 7.45597C275.176 6.43197 275.262 5.7493 275.347 5.40797C275.262 5.06664 275.304 4.5973 275.475 3.99997C275.646 3.3173 275.944 3.0613 276.371 3.23197C276.542 3.14664 276.926 3.14664 277.523 3.23197C278.12 3.3173 278.803 3.4453 279.571 3.61597C280.339 3.7013 281.107 3.78664 281.875 3.87197C282.728 3.9573 283.454 3.99997 284.051 3.99997C284.136 3.99997 284.179 4.2133 284.179 4.63997C284.179 5.06664 284.136 5.40797 284.051 5.66397L284.819 17.952V31.776C284.819 32.032 284.776 32.288 284.691 32.544C284.691 32.8 284.691 33.056 284.691 33.312C284.776 34.08 284.819 34.8906 284.819 35.744C284.819 36.512 284.819 37.3226 284.819 38.176C284.904 38.7733 284.904 39.4133 284.819 40.096C284.819 40.6933 284.819 41.3333 284.819 42.016C284.819 42.528 284.819 43.2533 284.819 44.192C284.904 45.0453 284.947 45.9413 284.947 46.88C284.947 47.8186 284.947 48.7146 284.947 49.568C284.947 50.5066 284.947 51.2746 284.947 51.872V52.512ZM268.435 32.8C268.435 32.288 268.52 31.1786 268.691 29.472C268.862 27.68 268.478 25.504 267.539 22.944C267.283 22.2613 266.899 21.536 266.387 20.768C265.875 20 265.064 19.4026 263.955 18.976C263.358 18.8053 262.803 18.6346 262.291 18.464C261.779 18.208 261.224 18.1226 260.627 18.208C260.03 18.3786 259.262 18.7626 258.323 19.36C257.47 19.9573 256.744 20.6826 256.147 21.536C255.72 21.9626 255.464 22.432 255.379 22.944C255.294 23.456 255.208 24.0533 255.123 24.736C254.867 25.8453 254.654 26.6986 254.483 27.296C254.398 27.8933 254.355 28.6613 254.355 29.6C254.355 31.3066 254.824 32.8 255.763 34.08C256.787 35.36 257.427 36.2133 257.683 36.64C257.939 36.896 258.152 37.0666 258.323 37.152C258.579 37.152 258.92 37.3653 259.347 37.792C260.2 38.2186 261.011 38.304 261.779 38.048C262.547 37.7066 263.4 37.3226 264.339 36.896H265.107C265.875 36.4693 266.515 36.0426 267.027 35.616C267.539 35.1893 268.008 34.5493 268.435 33.696V32.8Z" fill="black"/>
<path d="M224.728 47.9039C224.899 45.9413 224.941 44.1919 224.856 42.6559C224.771 41.0346 224.728 39.6266 224.728 38.4319C224.472 37.4079 224.301 36.3839 224.216 35.3599C224.131 34.2506 224.003 33.2266 223.832 32.2879C223.405 31.0933 223.107 29.8986 222.936 28.7039C222.851 27.4239 222.595 26.1866 222.168 24.9919C222.168 23.7119 221.912 22.5173 221.4 21.4079C220.973 20.2133 220.163 19.1893 218.968 18.3359C218.029 17.9093 217.176 17.5253 216.408 17.1839C215.64 16.8426 214.829 16.6719 213.976 16.6719C213.549 16.9279 212.824 17.3546 211.8 17.9519C210.861 18.5493 210.179 19.3173 209.752 20.2559C209.325 21.2799 208.941 22.2186 208.6 23.0719C208.344 23.8399 208.045 24.4799 207.704 24.9919C207.192 25.8453 206.936 26.8693 206.936 28.0639C206.936 29.2586 206.893 30.3253 206.808 31.2639C206.808 31.4346 206.765 31.8613 206.68 32.5439C206.595 33.1413 206.509 33.8239 206.424 34.5919C206.339 35.3599 206.253 36.0853 206.168 36.7679C206.083 37.3653 206.04 37.7493 206.04 37.9199L205.016 45.3439C205.016 45.9413 204.973 46.5386 204.888 47.1359C204.888 47.6479 204.888 48.2026 204.888 48.7999C204.888 49.2266 204.845 49.6533 204.76 50.0799C204.675 50.5066 204.632 50.9333 204.632 51.3599H203.864C202.84 51.5306 201.731 51.6159 200.536 51.6159C199.427 51.6159 198.104 51.5306 196.568 51.3599C196.141 51.2746 195.757 51.1893 195.416 51.1039C195.16 51.0186 195.032 50.5493 195.032 49.6959C195.032 48.6719 194.989 47.7333 194.904 46.8799C194.904 46.0266 194.904 45.1306 194.904 44.1919C194.989 42.9119 195.032 41.6319 195.032 40.3519C195.032 38.9866 194.904 37.5359 194.648 35.9999C194.648 34.8906 194.52 33.6959 194.264 32.4159C194.008 31.1359 193.795 29.8986 193.624 28.7039C193.453 27.5946 193.368 26.4853 193.368 25.3759C193.368 24.1813 193.155 23.1146 192.728 22.1759C192.472 21.3226 192.173 20.5546 191.832 19.8719C191.576 19.1039 191.235 18.2933 190.808 17.4399C190.723 17.2693 190.637 17.1839 190.552 17.1839C190.467 17.0986 190.381 17.0133 190.296 16.9279L189.4 16.5439C188.461 15.9466 187.309 15.5199 185.944 15.2639H185.432L182.616 15.6479C180.909 15.9039 179.544 16.5013 178.52 17.4399C176.045 19.9146 174.424 23.1999 173.656 27.2959C173.144 28.0639 172.845 28.8746 172.76 29.7279C172.675 30.4959 172.547 31.2639 172.376 32.0319C172.205 32.9706 172.077 33.9519 171.992 34.9759C171.992 35.9146 171.949 36.8533 171.864 37.7919C171.864 38.4746 171.736 39.1573 171.48 39.8399C171.309 40.5226 171.309 41.1626 171.48 41.7599C171.48 41.9306 171.437 42.3146 171.352 42.9119C171.352 43.5093 171.309 44.1493 171.224 44.8319C171.224 45.5146 171.181 46.1546 171.096 46.7519C171.096 47.3493 171.096 47.7333 171.096 47.9039C170.925 48.2453 170.84 48.9279 170.84 49.9519C170.84 50.9759 170.797 51.5733 170.712 51.7439C170.285 51.7439 169.773 51.7866 169.176 51.8719C168.664 52.0426 168.109 52.2133 167.512 52.3839C167 52.5546 166.403 52.5973 165.72 52.5119C165.037 52.4266 164.397 52.2986 163.8 52.1279C162.52 51.8719 161.581 51.7439 160.984 51.7439C160.387 51.7439 159.619 51.6159 158.68 51.3599C158.68 50.8479 158.637 50.2079 158.552 49.4399C158.552 48.5866 158.467 47.7333 158.296 46.8799C158.211 45.9413 158.125 45.0453 158.04 44.1919C158.04 43.3386 158.04 42.6986 158.04 42.2719C158.04 42.0159 157.997 41.5893 157.912 40.9919C157.912 40.3093 157.869 39.6266 157.784 38.9439C157.784 38.1759 157.741 37.4933 157.656 36.8959C157.571 36.2133 157.528 35.7439 157.528 35.4879C157.443 34.6346 157.4 33.8666 157.4 33.1839C157.4 32.5013 157.4 31.7333 157.4 30.8799C157.485 30.0266 157.528 29.2159 157.528 28.4479C157.528 27.6799 157.528 26.9119 157.528 26.1439V15.5199C157.528 15.2639 157.528 14.6239 157.528 13.5999C157.613 12.4906 157.656 11.3386 157.656 10.1439C157.741 8.94926 157.784 7.83993 157.784 6.81593C157.869 5.7066 157.912 5.02393 157.912 4.76793C158.339 4.76793 158.893 4.72526 159.576 4.63993C160.259 4.55459 160.813 4.51193 161.24 4.51193C162.093 4.51193 162.861 4.51193 163.544 4.51193C164.312 4.42659 165.08 4.38393 165.848 4.38393C166.701 4.38393 167.128 4.38393 167.128 4.38393C167.128 4.29859 167.299 4.29859 167.64 4.38393C167.896 5.15193 167.981 5.66393 167.896 5.91993C167.896 6.09059 167.981 6.47459 168.152 7.07193C168.237 7.49859 168.323 8.0106 168.408 8.60793C168.579 9.20526 168.664 9.71726 168.664 10.1439V10.7839C169.432 10.0159 170.2 9.41859 170.968 8.99193C171.736 8.47993 172.333 8.01059 172.76 7.58393C173.955 6.64526 175.192 6.00526 176.472 5.66393C177.752 5.32259 179.203 5.02393 180.824 4.76793L186.584 4.12793H187.48C188.76 4.38393 189.912 4.6826 190.936 5.02393C191.96 5.27993 193.027 5.74926 194.136 6.43193L197.336 9.24793C197.848 9.58926 198.189 9.88793 198.36 10.1439C198.787 10.4853 199.171 10.9119 199.512 11.4239C199.939 11.8506 200.323 12.4906 200.664 13.3439C201.091 12.9173 201.475 12.5333 201.816 12.1919C202.157 11.7653 202.541 11.3386 202.968 10.9119C203.139 10.7413 203.352 10.5706 203.608 10.3999C203.949 10.2293 204.333 10.0586 204.76 9.88793C205.443 9.46126 205.955 9.11993 206.296 8.86393C206.637 8.5226 207.149 8.18126 207.832 7.83993C208.259 7.66926 208.728 7.49859 209.24 7.32793C209.837 7.15726 210.349 6.94393 210.776 6.68793C212.824 5.83459 214.659 5.66393 216.28 6.17593C217.987 6.68793 219.651 7.15726 221.272 7.58393C222.552 8.01059 223.619 8.65059 224.472 9.50393C225.411 10.3573 226.307 11.3813 227.16 12.5759L229.592 17.4399C230.019 18.7199 230.403 19.9999 230.744 21.2799C231.171 22.4746 231.384 23.7119 231.384 24.9919C231.725 26.6133 232.067 28.2773 232.408 29.9839C232.749 31.6053 232.92 33.4399 232.92 35.4879C233.347 36.7679 233.475 38.1759 233.304 39.7119C233.133 41.2479 233.261 42.6133 233.688 43.8079V50.4639C232.835 50.4639 232.152 50.5919 231.64 50.8479C231.213 51.1893 230.531 51.3599 229.592 51.3599C229.165 51.3599 228.611 51.4026 227.928 51.4879C227.245 51.6586 226.691 51.8293 226.264 51.9999C225.837 51.9999 225.453 51.9573 225.112 51.8719C224.856 51.8719 224.728 51.7013 224.728 51.3599V47.9039Z" fill="black"/>
<path d="M72 50.2879L74.8952 44.844C74.6034 43.2809 75.7554 40.3617 75.904 39.0239C76.0747 37.4879 75.9467 36.0799 75.52 34.7999C75.52 32.7519 75.3493 30.9173 75.008 29.2959C74.6667 27.5893 74.3253 25.9253 73.984 24.3039C73.984 23.0239 73.7707 21.7866 73.344 20.5919C73.0027 19.3119 72.6187 18.0319 72.192 16.7519L69.76 11.8879C68.9067 10.6933 68.0107 9.66927 67.072 8.81594C66.2187 7.96261 65.152 7.32261 63.872 6.89594C62.2507 6.46927 60.5867 5.99994 58.88 5.48794C57.2587 4.97594 55.424 5.14661 53.376 5.99994C52.9493 6.25594 52.4373 6.46927 51.84 6.63994C51.328 6.81061 50.8587 6.98127 50.432 7.15194C49.7493 7.49327 49.2373 7.83461 48.896 8.17594C48.5547 8.43194 48.0427 8.77327 47.36 9.19994C46.9333 9.37061 46.5493 9.54127 46.208 9.71194C45.952 9.88261 45.7387 10.0533 45.568 10.2239C45.1413 10.6506 44.7573 11.0773 44.416 11.5039L43.264 12.6559C42.9227 11.8026 42.5387 11.1626 42.112 10.7359C41.7707 10.2239 41.3867 9.79727 40.96 9.45594C40.7893 9.19994 40.448 8.90127 39.936 8.55994L36.736 5.74394C35.6267 5.06127 34.56 4.59194 33.536 4.33594C32.512 3.99461 31.36 3.69594 30.08 3.43994H29.184L23.424 4.07994C21.8027 4.33594 20.352 4.63461 19.072 4.97594C17.792 5.31727 16.5547 5.95727 15.36 6.89594C14.9333 7.32261 14.336 7.79194 13.568 8.30394C12.8 8.73061 12.032 9.32794 11.264 10.0959V9.45594C11.264 9.02927 11.1787 8.51727 11.008 7.91994C10.9227 7.32261 10.8373 6.81061 10.752 6.38394C10.5813 5.7866 10.496 5.40261 10.496 5.23194C10.5813 4.97594 10.496 4.46394 10.24 3.69594C9.89867 3.61061 9.728 3.61061 9.728 3.69594H8.448C7.68 3.69594 6.912 3.73861 6.144 3.82394H3.84C3.41333 3.82394 2.85867 3.86661 2.176 3.95194C1.49333 4.03727 0.938667 4.07994 0.512 4.07994C0.512 4.33594 0.469333 5.01861 0.384 6.12794C0.384 7.15194 0.341334 8.26127 0.256 9.45594C0.256 10.6506 0.213333 11.8026 0.128 12.9119V14.8319V25.4559V27.7599C0.128 28.5279 0.0853335 29.3386 0 30.1919V32.4959C0 33.1786 0.0426668 33.9466 0.128 34.7999C0.128 35.0559 0.170667 35.5253 0.256 36.2079C0.341334 36.8053 0.384 37.4879 0.384 38.2559C0.469333 38.9386 0.512 39.6213 0.512 40.3039C0.597334 40.9013 0.64 41.3279 0.64 41.5839V43.5039C0.725334 44.3573 0.810667 45.2533 0.896 46.1919C1.06667 47.0453 1.152 47.8986 1.152 48.7519C1.23733 49.5199 1.28 50.1599 1.28 50.6719C2.21867 50.9279 2.98667 51.0559 3.584 51.0559C4.18133 51.0559 5.12 51.1839 6.4 51.4399C6.99733 51.6106 7.63733 51.7386 8.32 51.8239C9.00267 51.9093 9.6 51.8666 10.112 51.6959C10.7093 51.5253 11.264 51.3546 11.776 51.1839C12.3733 51.0986 12.8853 51.0559 13.312 51.0559C13.3973 50.8853 13.44 50.2879 13.44 49.2639C13.44 48.2399 13.5253 47.5573 13.696 47.2159V46.0639C13.7813 45.4666 13.824 44.8266 13.824 44.1439C13.9093 43.4613 13.952 42.8213 13.952 42.2239C14.0373 41.6266 14.08 41.2426 14.08 41.0719C13.9093 40.4746 13.9093 39.8346 14.08 39.1519C14.336 38.4693 14.464 37.7866 14.464 37.1039C14.5493 36.1653 14.592 35.2266 14.592 34.2879C14.6773 33.2639 14.8053 32.2826 14.976 31.3439C15.1467 30.5759 15.2747 29.8079 15.36 29.0399C15.4453 28.1866 15.744 27.3759 16.256 26.6079C17.024 22.5119 18.6453 19.2266 21.12 16.7519C22.144 15.8133 23.5093 15.2159 25.216 14.9599L28.032 14.5759H28.544C29.9093 14.8319 31.0613 15.2586 32 15.8559L32.896 16.2399L33.152 16.4959C33.2373 16.4959 33.3227 16.5813 33.408 16.7519C33.8347 17.6053 34.176 18.4159 34.432 19.1839C34.7733 19.8666 35.072 20.6346 35.328 21.4879C35.7547 22.4266 35.968 23.4933 35.968 24.6879C35.968 25.7973 36.0533 26.9066 36.224 28.0159C36.3947 29.2106 36.608 30.4479 36.864 31.7279C37.12 33.0079 37.248 34.2026 37.248 35.3119C37.504 36.8479 37.632 38.2986 37.632 39.6639C37.632 40.9439 37.5893 42.2239 37.504 43.5039V46.1919C37.5893 47.0453 37.632 47.9839 37.632 49.0079C37.632 49.8613 37.76 50.3306 38.016 50.4159C38.3573 50.5013 38.7413 50.5866 39.168 50.6719C40.704 50.8426 42.0267 50.9279 43.136 50.9279C44.3307 50.9279 45.44 50.8426 46.464 50.6719H47.232C47.232 50.2453 47.2747 49.8186 47.36 49.3919C47.4453 48.9653 47.488 48.5386 47.488 48.1119V46.4479C47.5733 45.8506 47.616 45.2533 47.616 44.6559L48.64 37.2319C48.64 37.0613 48.6827 36.6773 48.768 36.0799C48.8533 35.3973 48.9387 34.6719 49.024 33.9039C49.1093 33.1359 49.1947 32.4533 49.28 31.8559C49.3653 31.1733 49.408 30.7466 49.408 30.5759C49.4933 29.6373 49.536 28.5706 49.536 27.3759C49.536 26.1813 49.792 25.1573 50.304 24.3039C50.6453 23.7919 50.944 23.1519 51.2 22.3839C51.5413 21.5306 51.9253 20.5919 52.352 19.5679C52.7787 18.6293 53.4613 17.8613 54.4 17.2639C55.424 16.6666 56.1493 16.2399 56.576 15.9839C57.4293 15.9839 58.24 16.1546 59.008 16.4959C59.776 16.8373 60.6293 17.2213 61.568 17.6479C62.7627 18.5013 63.5733 19.5253 64 20.7199C64.512 21.8293 64.768 23.0239 64.768 24.3039C65.1947 25.4986 65.4507 26.7359 65.536 28.0159C65.7067 29.2106 66.0053 30.4053 66.432 31.5999C66.6027 32.5386 66.7307 33.5626 66.816 34.6719C66.9013 35.6959 67.072 36.7199 67.328 37.7439C67.328 38.9386 67.3707 40.3466 67.456 41.9679C67.5413 43.5039 67.4987 45.2533 67.328 47.2159V50.6719C67.328 51.0133 67.456 51.1839 67.712 51.1839C68.0533 51.2693 68.4373 51.3119 68.864 51.3119C69.2907 51.1413 69.8453 50.9706 70.528 50.7999C71.2107 50.7146 71.7653 50.6719 72.192 50.6719C73.1307 50.6719 73.8133 50.5013 74.24 50.1599C74.752 49.9039 75.4347 49.7759 76.288 49.7759C76.444 48.8306 76.4304 46.6399 75.128 45.4399C73.9723 47.1762 72.8975 48.8499 72 50.2879Z" fill="black"/>
</svg>
