<svg width="84" height="79" viewBox="0 0 84 79" fill="none" xmlns="http://www.w3.org/2000/svg">
<path d="M15.7359 13.9519C15.7359 13.7813 15.8639 13.2266 16.1199 12.288C16.4613 11.3493 16.6746 10.8373 16.7599 10.752C16.9306 10.3253 17.0586 9.98397 17.144 9.72797C17.2293 9.38664 17.4853 8.91732 17.9119 8.31998C18.2533 7.89332 18.6799 7.38131 19.1919 6.78398C19.7893 6.18665 20.1733 5.75998 20.3439 5.50398C20.6853 4.99198 21.0693 4.52266 21.4959 4.096C21.8373 3.66933 22.3493 3.24267 23.0319 2.816C23.7146 2.38934 24.2693 1.96264 24.6959 1.53598C25.8906 1.19465 26.9146 0.853325 27.7679 0.511992C28.7066 0.170659 29.6026 0 30.4559 0C32.1626 0 33.7839 0.0426557 35.3199 0.12799C36.9412 0.213322 38.3492 0.469328 39.5439 0.895993C40.8239 0.895993 41.8905 1.06665 42.7439 1.40799C43.5972 1.66398 44.4505 2.00533 45.3039 2.432C45.7305 3.28533 46.2852 3.96797 46.9679 4.47997C47.6505 4.90663 48.2052 5.33333 48.6319 5.75999L49.3998 6.52797C49.9972 6.1013 50.2532 5.63198 50.1679 5.11998C50.1679 4.60798 50.2532 4.13866 50.4239 3.71199C50.5945 3.2 50.6798 2.77333 50.6798 2.432C50.6798 2.00533 50.7652 1.70664 50.9359 1.53598C51.1919 1.45064 51.4905 1.45064 51.8319 1.53598C52.1732 1.53598 52.5145 1.53598 52.8559 1.53598C53.6238 1.53598 54.6052 1.49332 55.7998 1.40799C56.9945 1.32265 57.8905 1.36531 58.4878 1.53598C58.6585 1.62131 58.8292 1.792 58.9998 2.048C59.1705 2.21866 59.2558 2.34667 59.2558 2.432V3.32799C59.2558 3.83999 59.2558 4.52266 59.2558 5.37599C59.3412 6.14399 59.3838 6.95463 59.3838 7.80796C59.3838 8.57596 59.3412 9.34397 59.2558 10.112C59.2558 10.88 59.2558 11.5199 59.2558 12.0319C59.2558 12.4586 59.2131 13.184 59.1278 14.208C59.1278 15.232 59.1278 16.3413 59.1278 17.5359C59.1278 18.6453 59.1278 19.6693 59.1278 20.6079C59.1278 21.5466 59.1705 22.0586 59.2558 22.1439C59.2558 22.9973 59.2131 23.9359 59.1278 24.9599C59.0425 25.9839 59.0425 26.7092 59.1278 27.1359L59.2558 31.2319C59.3412 31.8292 59.2985 32.7679 59.1278 34.0479C59.0425 35.3279 59.0852 36.7786 59.2558 38.3999C59.3412 38.9972 59.3412 39.8932 59.2558 41.0879C59.2558 42.1972 59.2131 43.3919 59.1278 44.6719C59.1278 45.8665 59.0852 46.9759 58.9998 47.9999C58.9998 49.1092 58.9998 49.8772 58.9998 50.3039C58.9998 51.9252 58.7012 53.5466 58.1038 55.1679C57.5918 56.8746 57.1225 58.5385 56.6958 60.1598C56.2692 61.0131 55.8425 61.8238 55.4158 62.5918C54.9892 63.3598 54.3492 64.2131 53.4958 65.1518C53.1545 65.5784 52.7705 66.0904 52.3438 66.6878C51.9172 67.3704 51.4905 67.9251 51.0639 68.3518C50.6372 68.9491 49.8692 69.5891 48.7599 70.2718C47.7359 71.0398 47.0105 71.7651 46.5839 72.4478C46.1572 72.9598 45.4319 73.3864 44.4079 73.7277C43.3839 74.0691 42.6585 74.2824 42.2319 74.3678L37.7519 75.9037C36.9839 76.3304 36.1732 76.6717 35.3199 76.9277C34.5519 77.2691 33.5706 77.4824 32.3759 77.5677C32.2052 77.5677 32.0346 77.5251 31.8639 77.4397C31.6932 77.4397 31.5226 77.4824 31.3519 77.5677C30.4986 77.5677 29.7732 77.6531 29.1759 77.8237C28.6639 78.0797 27.9813 78.2077 27.1279 78.2077H26.3599C25.1653 78.2077 24.3546 78.1651 23.9279 78.0797C23.5866 78.0797 22.6906 78.1224 21.2399 78.2077C21.1546 78.2077 20.8986 78.2504 20.4719 78.3357C20.0453 78.4211 19.8319 78.3784 19.8319 78.2077C19.8319 76.5864 19.7466 75.0931 19.5759 73.7277C19.4906 72.3624 19.4479 71.0398 19.4479 69.7598L20.3439 68.9918H24.6959C25.8906 68.5651 26.9573 68.3091 27.8959 68.2238C28.9199 68.1384 30.0719 67.8824 31.3519 67.4558C32.5466 66.6878 33.6132 65.9198 34.5519 65.1518C35.5759 64.3838 36.6852 63.7865 37.8799 63.3598C38.7332 62.5918 39.5439 61.7811 40.3119 60.9278C41.0799 60.1598 41.6772 59.3492 42.1039 58.4958C42.8719 57.7278 43.3412 56.9172 43.5119 56.0639C43.7679 55.2106 44.1092 54.3572 44.5359 53.5039C44.5359 52.7359 44.6639 51.9252 44.9199 51.0719C45.1759 50.3039 45.3039 49.4932 45.3039 48.6399V45.3119C45.3039 44.8852 45.1759 44.7999 44.9199 45.0559C44.7492 45.1412 44.6212 45.2265 44.5359 45.3119C43.3412 46.0799 41.9332 46.5065 40.3119 46.5919C38.6906 46.7625 37.0692 46.8479 35.4479 46.8479H34.5519C33.3572 46.7625 32.2052 46.5065 31.0959 46.0799C29.9866 45.8239 29.0479 45.5679 28.2799 45.3119C27.5119 45.0559 26.6586 44.6719 25.7199 44.1599C25.4639 43.9892 25.0799 43.8186 24.5679 43.6479C24.0559 43.3919 23.2026 42.9225 22.0079 42.2399L20.4719 40.4479L17.6559 37.3759C17.3999 36.9492 17.144 36.3946 16.888 35.7119C16.7173 35.0292 16.4613 34.2186 16.1199 33.2799C15.9493 32.7679 15.7359 32.2132 15.4799 31.6159C15.224 31.0186 15.0106 30.3786 14.84 29.6959V18.9439C14.84 18.5173 14.9253 17.9626 15.0959 17.2799C15.3519 16.5119 15.4799 15.9573 15.4799 15.6159C15.4799 15.4453 15.5226 15.2746 15.6079 15.1039C15.6079 14.9333 15.6079 14.7626 15.6079 14.592C15.6933 14.4213 15.7359 14.2079 15.7359 13.9519ZM27.4479 22.0319C27.8746 22.0319 28.2586 21.9892 28.5999 21.9039C29.0266 21.8186 29.4532 21.5626 29.8799 21.1359C30.0506 20.7946 30.0932 20.4533 30.0079 20.1119C30.0079 19.6853 30.0932 19.3866 30.2639 19.2159C30.6906 18.5333 30.8612 18.1066 30.7759 17.9359C30.6906 17.7653 30.6479 17.4666 30.6479 17.0399C30.6479 16.6133 30.4772 16.1013 30.1359 15.5039C29.8799 14.8213 29.5386 14.2666 29.1119 13.8399C28.6853 13.4133 28.3866 13.1999 28.2159 13.1999C28.0452 13.1999 27.4906 13.4133 26.5519 13.8399C25.9546 14.4373 25.6559 15.6746 25.6559 17.5519C25.6559 17.7226 25.6133 18.1066 25.5279 18.7039C25.5279 19.3013 25.6133 19.8559 25.7839 20.3679C25.7839 20.5386 25.9973 20.8799 26.4239 21.3919C26.8506 21.8186 27.1919 22.0319 27.4479 22.0319Z" fill="#2E6A44"/>
<path d="M14.84 29.6959V18.9439L2.89522 41.4039L0 46.8479C4.69065 39.3319 14.2256 25.3791 14.84 29.6959Z" fill="#2E6A44"/>
<path d="M63.6923 45.6751C62.9645 47.1321 62.2203 48.3872 61.4599 49.4403C60.6995 50.4935 59.948 51.4565 59.2056 52.3294C58.9461 52.7406 58.6487 52.9841 58.3134 53.0599C57.5417 52.7645 56.6888 52.37 55.7547 51.8764C54.7774 51.4513 53.9335 50.9666 53.2229 50.4224C52.6494 49.9647 52.0327 49.5755 51.3727 49.2548C50.6695 49.0027 50.1808 48.7901 49.9067 48.6172C50.1662 48.206 50.3698 47.8075 50.5175 47.4216C50.6652 47.0358 50.9679 46.5561 51.4256 45.9826C51.8401 45.4776 52.2076 44.8952 52.5283 44.2352C52.9175 43.6185 53.285 43.036 53.631 42.4878L56.8094 37.4511C57.7355 35.8318 58.7174 34.1998 59.7553 32.5552C60.7931 30.9106 61.4507 29.7925 61.7281 29.2011C62.0488 28.5411 62.438 27.9244 62.8957 27.3509C63.422 26.8207 63.8797 26.2472 64.2689 25.6304C64.8057 24.6278 65.3769 23.6469 65.9823 22.6875C66.6995 21.7029 67.3608 20.7309 67.9662 19.7715C68.4851 18.9492 69.1211 17.8654 69.8742 16.5202C70.6706 15.1064 71.3967 14.0317 72.0527 13.2958C72.6874 13.5047 73.4159 13.8686 74.2382 14.3875C75.0605 14.9065 75.9729 15.4344 76.9755 15.9712C77.7726 16.3784 78.548 16.8198 79.3018 17.2955C80.0556 17.7712 80.6038 18.1171 80.9464 18.3333C81.0834 18.4198 80.988 18.647 80.66 19.0149C80.4438 19.3576 80.2924 19.5974 80.2059 19.7345C79.0563 21.4043 78.105 22.9119 77.3519 24.2572C76.642 25.5339 75.7861 26.8142 74.7842 28.0982C73.9879 29.512 73.2311 30.7112 72.5139 31.6959C71.9085 32.6552 71.1048 33.7769 70.1029 35.0609C69.9732 35.2665 69.6273 35.8147 69.0651 36.7055C68.5029 37.5964 67.8886 38.6459 67.2219 39.8541C66.5986 40.9937 65.9409 42.1118 65.249 43.2082C64.6004 44.2361 64.0815 45.0584 63.6923 45.6751ZM71.2367 8.11251C71.3844 7.72664 71.6745 7.19108 72.1069 6.50582C72.6079 5.86381 73.0962 5.16591 73.5719 4.41213C73.7881 4.0695 73.9484 3.73949 74.0529 3.42215C74.2259 3.14805 74.3988 2.87396 74.5718 2.59985C74.6583 2.4628 74.7232 2.36001 74.7664 2.29148C74.8782 2.2662 74.9773 2.18503 75.0638 2.04798L82.4646 6.71827C82.8072 6.93449 82.9912 7.09848 83.0164 7.21025C83.085 7.25349 83.0111 7.44644 82.7949 7.78907L78.5787 14.4703C78.1243 14.2794 77.4516 13.9028 76.5608 13.3407C75.7385 12.8218 74.8819 12.2812 73.9911 11.7191C73.1003 11.1569 72.2779 10.638 71.5242 10.1623C70.8821 9.66132 70.6044 9.34231 70.6909 9.20526C70.7521 8.95644 70.934 8.59219 71.2367 8.11251Z" fill="#12512E"/>
<path d="M58.9036 47.8315C59.5837 46.6105 60.221 45.1759 60.8155 43.5276L62.1688 40.6959C62.7702 39.4374 63.3324 38.1601 63.8552 36.864C64.4155 35.4892 64.9401 34.2905 65.4287 33.268L66.3309 31.3802C67.24 29.8822 67.9577 28.5827 68.484 27.4815C69.1265 26.3392 69.7843 24.9627 70.4575 23.3519C71.3666 21.854 72.1202 20.3783 72.7181 18.9249C73.3537 17.3928 74.1807 15.6623 75.1991 13.7335L75.5938 12.9076C75.898 12.4732 75.9715 12.2184 75.8142 12.1432L73.9264 11.2411C73.0611 10.8276 72.1771 10.4534 71.2743 10.1186C70.1355 9.67095 69.0942 9.22161 68.1503 8.77052C67.2064 8.31943 66.3822 8.02218 65.6778 7.87877C65.0694 8.74748 64.4286 9.98721 63.7554 11.598C63.1199 13.13 62.5766 14.368 62.1255 15.3119C61.5992 16.4131 61.0148 17.5349 60.3723 18.6771C59.846 19.7783 59.3591 20.8983 58.9115 22.0371C58.5731 22.745 58.1562 23.4154 57.6605 24.0481C57.2436 24.7184 56.9052 25.4264 56.6456 26.1719C56.4235 26.8387 55.8614 28.116 54.9592 30.0038C54.0571 31.8916 53.213 33.7588 52.4271 35.6055L48.7056 43.3926C48.446 44.1381 48.1265 44.8067 47.7471 45.3984C47.3301 46.0687 47.067 46.6193 46.9577 47.0502C46.8484 47.4811 46.681 47.9325 46.4554 48.4044C46.77 48.5548 47.3189 48.7205 48.102 48.9015C48.8475 49.1611 49.5554 49.4995 50.2257 49.9164C51.0534 50.4086 52.0161 50.8203 53.1138 51.1517C54.1739 51.5617 55.1349 51.876 55.9966 52.0946C56.3454 51.9714 56.6325 51.6739 56.8581 51.2019C57.5417 50.1759 58.2235 49.0524 58.9036 47.8315Z" fill="#2E6A44"/>
</svg>
