<svg width="84" height="79" viewBox="0 0 84 79" fill="none" xmlns="http://www.w3.org/2000/svg">
<path d="M15.736 13.952C15.736 13.7813 15.864 13.2267 16.12 12.288C16.4613 11.3493 16.6747 10.8373 16.76 10.752C16.9307 10.3253 17.0587 9.984 17.144 9.728C17.2293 9.38666 17.4853 8.91734 17.912 8.32001C18.2533 7.89334 18.68 7.38133 19.192 6.784C19.7893 6.18666 20.1733 5.76 20.344 5.504C20.6853 4.992 21.0693 4.52267 21.496 4.09601C21.8373 3.66934 22.3493 3.24268 23.032 2.81601C23.7147 2.38934 24.2693 1.96265 24.696 1.53598C25.8907 1.19465 26.9147 0.853327 27.768 0.511993C28.7067 0.170659 29.6027 0 30.456 0C32.1627 0 33.784 0.0426559 35.32 0.127991C36.9413 0.213323 38.3493 0.46933 39.544 0.895996C40.824 0.895996 41.8907 1.06666 42.744 1.40799C43.5973 1.66399 44.4507 2.00534 45.304 2.43201C45.7307 3.28534 46.2853 3.96798 46.968 4.47998C47.6507 4.90665 48.2053 5.33334 48.632 5.76001L49.4 6.52798C49.9973 6.10132 50.2533 5.63199 50.168 5.12C50.168 4.60799 50.2533 4.13867 50.424 3.71201C50.5947 3.2 50.68 2.77334 50.68 2.43201C50.68 2.00534 50.7653 1.70665 50.936 1.53598C51.192 1.45065 51.4907 1.45065 51.832 1.53598C52.1733 1.53598 52.5147 1.53598 52.856 1.53598C53.624 1.53598 54.6053 1.49332 55.8 1.40799C56.9947 1.32266 57.8907 1.36532 58.488 1.53598C58.6587 1.62132 58.8293 1.792 59 2.048C59.1707 2.21867 59.256 2.34667 59.256 2.43201V3.328C59.256 3.84 59.256 4.52267 59.256 5.37601C59.3413 6.14401 59.384 6.95465 59.384 7.80798C59.384 8.57598 59.3413 9.344 59.256 10.112C59.256 10.88 59.256 11.52 59.256 12.032C59.256 12.4586 59.2133 13.184 59.128 14.208C59.128 15.232 59.128 16.3413 59.128 17.536C59.128 18.6453 59.128 19.6693 59.128 20.608C59.128 21.5467 59.1707 22.0587 59.256 22.144C59.256 22.9973 59.2133 23.936 59.128 24.96C59.0427 25.984 59.0427 26.7093 59.128 27.136L59.256 31.232C59.3413 31.8293 59.2987 32.768 59.128 34.048C59.0427 35.328 59.0853 36.7787 59.256 38.4C59.3413 38.9973 59.3413 39.8933 59.256 41.088C59.256 42.1973 59.2133 43.392 59.128 44.672C59.128 45.8667 59.0853 46.976 59 48C59 49.1093 59 49.8773 59 50.304C59 51.9253 58.7013 53.5467 58.104 55.1681C57.592 56.8747 57.1227 58.5386 56.696 60.16C56.2693 61.0133 55.8427 61.824 55.416 62.592C54.9893 63.36 54.3493 64.2133 53.496 65.152C53.1547 65.5786 52.7707 66.0906 52.344 66.688C51.9173 67.3706 51.4907 67.9253 51.064 68.352C50.6373 68.9493 49.8693 69.5893 48.76 70.272C47.736 71.04 47.0107 71.7653 46.584 72.448C46.1573 72.96 45.432 73.3866 44.408 73.728C43.384 74.0693 42.6587 74.2826 42.232 74.368L37.752 75.904C36.984 76.3306 36.1733 76.672 35.32 76.928C34.552 77.2693 33.5707 77.4826 32.376 77.568C32.2053 77.568 32.0347 77.5253 31.864 77.44C31.6933 77.44 31.5227 77.4826 31.352 77.568C30.4987 77.568 29.7733 77.6533 29.176 77.824C28.664 78.08 27.9813 78.208 27.128 78.208H26.36C25.1653 78.208 24.3547 78.1653 23.928 78.08C23.5867 78.08 22.6907 78.1226 21.24 78.208C21.1547 78.208 20.8987 78.2506 20.472 78.336C20.0453 78.4213 19.832 78.3786 19.832 78.208C19.832 76.5866 19.7467 75.0933 19.576 73.728C19.4907 72.3626 19.448 71.04 19.448 69.76L20.344 68.992H24.696C25.8907 68.5653 26.9573 68.3093 27.896 68.224C28.92 68.1386 30.072 67.8826 31.352 67.456C32.5467 66.688 33.6133 65.92 34.552 65.152C35.576 64.384 36.6853 63.7866 37.88 63.36C38.7333 62.592 39.544 61.7813 40.312 60.928C41.08 60.16 41.6773 59.3493 42.104 58.496C42.872 57.728 43.3413 56.9174 43.512 56.0641C43.768 55.2107 44.1093 54.3574 44.536 53.5041C44.536 52.7361 44.664 51.9254 44.92 51.072C45.176 50.304 45.304 49.4933 45.304 48.64V45.312C45.304 44.8853 45.176 44.8 44.92 45.056C44.7493 45.1413 44.6213 45.2267 44.536 45.312C43.3413 46.08 41.9333 46.5067 40.312 46.592C38.6907 46.7627 37.0693 46.848 35.448 46.848H34.552C33.3573 46.7627 32.2053 46.5067 31.096 46.08C29.9867 45.824 29.048 45.568 28.28 45.312C27.512 45.056 26.6587 44.672 25.72 44.16C25.464 43.9893 25.08 43.8187 24.568 43.648C24.056 43.392 23.2027 42.9227 22.008 42.24L20.472 40.448L17.656 37.376C17.4 36.9493 17.144 36.3947 16.888 35.712C16.7173 35.0293 16.4613 34.2187 16.12 33.28C15.9493 32.768 15.736 32.2133 15.48 31.616C15.224 31.0186 15.0107 30.3787 14.84 29.696V18.944C14.84 18.5173 14.9253 17.9627 15.096 17.28C15.352 16.512 15.48 15.9573 15.48 15.616C15.48 15.4453 15.5227 15.2747 15.608 15.104C15.608 14.9333 15.608 14.7627 15.608 14.592C15.6933 14.4213 15.736 14.208 15.736 13.952ZM27.448 22.032C27.8747 22.032 28.2587 21.9893 28.6 21.904C29.0267 21.8186 29.4533 21.5627 29.88 21.136C30.0507 20.7947 30.0933 20.4533 30.008 20.112C30.008 19.6853 30.0933 19.3867 30.264 19.216C30.6907 18.5333 30.8613 18.1067 30.776 17.936C30.6907 17.7653 30.648 17.4667 30.648 17.04C30.648 16.6133 30.4773 16.1013 30.136 15.504C29.88 14.8213 29.5387 14.2666 29.112 13.84C28.6853 13.4133 28.3867 13.2 28.216 13.2C28.0453 13.2 27.4907 13.4133 26.552 13.84C25.9547 14.4373 25.656 15.6747 25.656 17.552C25.656 17.7227 25.6133 18.1067 25.528 18.704C25.528 19.3013 25.6133 19.856 25.784 20.368C25.784 20.5387 25.9973 20.88 26.424 21.392C26.8507 21.8187 27.192 22.032 27.448 22.032Z" fill="#F2F1EE"/>
<path d="M14.84 29.696V18.944L2.89523 41.404L0 46.848C4.69067 39.332 14.2256 25.3792 14.84 29.696Z" fill="#F2F1EE"/>
<path d="M63.6924 45.6752C62.9646 47.1322 62.2205 48.3873 61.4601 49.4405C60.6996 50.4937 59.9482 51.4567 59.2058 52.3296C58.9463 52.7407 58.6489 52.9842 58.3136 53.0601C57.5419 52.7647 56.689 52.3702 55.7549 51.8765C54.7776 51.4514 53.9336 50.9668 53.2231 50.4226C52.6496 49.9648 52.0328 49.5757 51.3729 49.255C50.6696 49.0028 50.181 48.7903 49.9069 48.6173C50.1663 48.2062 50.3699 47.8076 50.5176 47.4218C50.6653 47.0359 50.968 46.5562 51.4257 45.9827C51.8402 45.4778 52.2078 44.8953 52.5284 44.2353C52.9176 43.6186 53.2852 43.0361 53.6311 42.4879L56.8095 37.4512C57.7356 35.8319 58.7176 34.1999 59.7554 32.5553C60.7933 30.9107 61.4509 29.7926 61.7283 29.2012C62.049 28.5412 62.4382 27.9245 62.8959 27.351C63.4221 26.8207 63.8799 26.2472 64.2691 25.6305C64.8059 24.6279 65.3771 23.6469 65.9825 22.6876C66.6997 21.7029 67.361 20.7309 67.9664 19.7716C68.4853 18.9492 69.1213 17.8655 69.8744 16.5202C70.6708 15.1065 71.3969 14.0317 72.0529 13.2959C72.6876 13.5048 73.4161 13.8687 74.2384 14.3876C75.0607 14.9065 75.9732 15.4344 76.9758 15.9713C77.7728 16.3784 78.5482 16.8199 79.302 17.2955C80.0558 17.7712 80.604 18.1172 80.9466 18.3334C81.0837 18.4199 80.9882 18.6471 80.6602 19.015C80.444 19.3576 80.2926 19.5975 80.2061 19.7345C79.0565 21.4044 78.1052 22.912 77.3521 24.2572C76.6422 25.5339 75.7864 26.8143 74.7844 28.0983C73.9881 29.5121 73.2313 30.7113 72.5141 31.6959C71.9087 32.6553 71.105 33.777 70.1031 35.061C69.9734 35.2666 69.6275 35.8148 69.0653 36.7056C68.5031 37.5965 67.8888 38.646 67.2221 39.8542C66.5988 40.9939 65.9411 42.1119 65.2492 43.2083C64.6006 44.2362 64.0816 45.0585 63.6924 45.6752ZM71.237 8.11253C71.3846 7.72666 71.6747 7.1911 72.1071 6.50584C72.6081 5.86383 73.0964 5.16593 73.5721 4.41214C73.7883 4.06951 73.9487 3.73951 74.0531 3.42216C74.2261 3.14806 74.399 2.87396 74.572 2.59986C74.6585 2.46281 74.7234 2.36001 74.7666 2.29149C74.8784 2.26621 74.9775 2.18504 75.064 2.04799L82.4648 6.71829C82.8074 6.93451 82.9914 7.0985 83.0167 7.21027C83.0852 7.25351 83.0113 7.44646 82.7951 7.78909L78.5789 14.4704C78.1245 14.2794 77.4519 13.9029 76.561 13.3407C75.7387 12.8218 74.8821 12.2813 73.9913 11.7191C73.1005 11.1569 72.2782 10.638 71.5244 10.1623C70.8824 9.66135 70.6046 9.34234 70.6911 9.20529C70.7523 8.95647 70.9342 8.59221 71.237 8.11253Z" fill="#E3E2DF"/>
<path d="M58.9038 47.8316C59.5839 46.6107 60.2212 45.176 60.8157 43.5277L62.169 40.696C62.7704 39.4375 63.3325 38.1602 63.8553 36.8641C64.4157 35.4893 64.9402 34.2906 65.4289 33.2681L66.3311 31.3803C67.2402 29.8823 67.9579 28.5827 68.4842 27.4815C69.1267 26.3393 69.7845 24.9628 70.4577 23.352C71.3668 21.854 72.1204 20.3783 72.7184 18.9249C73.3539 17.3928 74.1809 15.6623 75.1993 13.7335L75.5941 12.9076C75.8983 12.4732 75.9717 12.2185 75.8144 12.1433L73.9266 11.2411C73.0613 10.8276 72.1773 10.4534 71.2745 10.1186C70.1357 9.67098 69.0944 9.22163 68.1505 8.77055C67.2066 8.31946 66.3824 8.02221 65.678 7.8788C65.0696 8.74751 64.4288 9.98724 63.7556 11.598C63.12 13.1301 62.5767 14.3681 62.1256 15.312C61.5994 16.4132 61.015 17.5349 60.3725 18.6772C59.8462 19.7784 59.3592 20.8984 58.9116 22.0372C58.5733 22.7451 58.1563 23.4154 57.6607 24.0482C57.2437 24.7185 56.9054 25.4264 56.6458 26.1719C56.4237 26.8388 55.8616 28.1161 54.9594 30.0039C54.0572 31.8917 53.2132 33.7589 52.4272 35.6056L48.7058 43.3928C48.4461 44.1383 48.1266 44.8069 47.7472 45.3985C47.3302 46.0689 47.0671 46.6195 46.9578 47.0503C46.8485 47.4812 46.6811 47.9326 46.4555 48.4046C46.7702 48.5549 47.319 48.7206 48.1021 48.9016C48.8476 49.1613 49.5556 49.4996 50.2259 49.9166C51.0535 50.4087 52.0162 50.8205 53.114 51.1518C54.1741 51.5619 55.135 51.8762 55.9968 52.0948C56.3455 51.9716 56.6327 51.674 56.8582 51.2021C57.5418 50.176 58.2237 49.0525 58.9038 47.8316Z" fill="#F2F1EE"/>
</svg>
