<svg width="256" height="256" viewBox="0 0 256 256" fill="none" xmlns="http://www.w3.org/2000/svg">
<g clip-path="url(#clip0_140_151)">
<rect width="256" height="256" rx="56" fill="url(#paint0_linear_140_151)"/>
<rect width="256" height="256" rx="56" fill="black" fill-opacity="0.01"/>
<g filter="url(#filter1_d_140_151)">
<path d="M70.3947 66.0232C70.3947 65.6361 70.6807 64.378 71.2526 62.2487C72.0152 60.1195 72.4918 58.958 72.6824 58.7645C73.0637 57.7966 73.3497 57.0224 73.5403 56.4417C73.731 55.6674 74.3029 54.6028 75.2561 53.2478C76.0187 52.28 76.9719 51.1186 78.1157 49.7636C79.4502 48.4086 80.3081 47.4408 80.6894 46.8601C81.452 45.6987 82.3099 44.6341 83.2631 43.6663C84.0256 42.6984 85.1695 41.7306 86.6946 40.7627C88.2198 39.7949 89.4589 38.827 90.4122 37.8592C93.0811 37.0849 95.3688 36.3107 97.2753 35.5364C99.3723 34.7621 101.374 34.375 103.28 34.375C107.093 34.375 110.716 34.4718 114.147 34.6653C117.769 34.8589 120.915 35.4396 123.584 36.4074C126.443 36.4074 128.827 36.7946 130.733 37.5688C132.639 38.1495 134.546 38.9239 136.452 39.8917C137.405 41.8274 138.645 43.3758 140.17 44.5372C141.695 45.5051 142.934 46.473 143.887 47.4408L145.603 49.1829C146.938 48.215 147.509 47.1504 147.319 45.989C147.319 44.8276 147.509 43.763 147.891 42.7952C148.272 41.6338 148.463 40.666 148.463 39.8917C148.463 38.9239 148.653 38.2463 149.035 37.8592C149.607 37.6656 150.274 37.6656 151.036 37.8592C151.799 37.8592 152.561 37.8592 153.324 37.8592C155.04 37.8592 157.232 37.7624 159.901 37.5688C162.57 37.3753 164.572 37.472 165.906 37.8592C166.288 38.0527 166.669 38.4399 167.05 39.0206C167.432 39.4078 167.622 39.6981 167.622 39.8917V41.9241C167.622 43.0855 167.622 44.6341 167.622 46.5698C167.813 48.3119 167.908 50.1507 167.908 52.0864C167.908 53.8285 167.813 55.5706 167.622 57.3127C167.622 59.0549 167.622 60.5066 167.622 61.668C167.622 62.6358 167.527 64.2812 167.336 66.604C167.336 68.9268 167.336 71.4432 167.336 74.1531C167.336 76.6695 167.336 78.9923 167.336 81.1215C167.336 83.2508 167.432 84.4122 167.622 84.6057C167.622 86.5414 167.527 88.6706 167.336 90.9934C167.146 93.3163 167.146 94.9616 167.336 95.9294L167.622 105.221C167.813 106.576 167.717 108.705 167.336 111.608C167.146 114.512 167.241 117.803 167.622 121.48C167.813 122.835 167.813 124.868 167.622 127.578C167.622 130.094 167.527 132.804 167.336 135.708C167.336 138.418 167.241 140.934 167.05 143.257C167.05 145.773 167.05 147.515 167.05 148.483C167.05 152.161 166.383 155.839 165.049 159.517C163.905 163.388 162.856 167.162 161.903 170.84C160.95 172.776 159.997 174.615 159.043 176.357C158.09 178.099 156.66 180.034 154.754 182.164C153.991 183.132 153.133 184.293 152.18 185.648C151.227 187.196 150.274 188.455 149.321 189.423C148.367 190.777 146.652 192.229 144.173 193.778C141.886 195.52 140.265 197.165 139.312 198.714C138.359 199.875 136.738 200.843 134.45 201.617C132.163 202.392 130.542 202.875 129.589 203.069L119.58 206.553C117.865 207.521 116.054 208.295 114.147 208.876C112.431 209.65 110.239 210.134 107.57 210.328C107.189 210.328 106.807 210.231 106.426 210.037C106.045 210.037 105.664 210.134 105.282 210.328C103.376 210.328 101.755 210.521 100.421 210.909C99.277 211.489 97.7519 211.78 95.8454 211.78H94.1297C91.4607 211.78 89.6496 211.683 88.6964 211.489C87.9338 211.489 85.9321 211.586 82.6911 211.78C82.5005 211.78 81.9286 211.876 80.9754 212.07C80.0222 212.263 79.5456 212.167 79.5456 211.78C79.5456 208.102 79.3549 204.714 78.9736 201.617C78.783 198.52 78.6877 195.52 78.6877 192.616L80.6894 190.874H90.4122C93.0811 189.906 95.4642 189.326 97.5612 189.132C99.8489 188.939 102.423 188.358 105.282 187.39C107.951 185.648 110.334 183.906 112.431 182.164C114.719 180.422 117.197 179.067 119.866 178.099C121.773 176.357 123.584 174.518 125.3 172.582C127.015 170.84 128.35 169.001 129.303 167.066C131.019 165.323 132.067 163.485 132.449 161.549C133.021 159.613 133.783 157.678 134.736 155.742C134.736 154 135.022 152.161 135.594 150.225C136.166 148.483 136.452 146.644 136.452 144.708V137.159C136.452 136.192 136.166 135.998 135.594 136.579C135.213 136.772 134.927 136.966 134.736 137.159C132.067 138.901 128.922 139.869 125.3 140.063C121.677 140.45 118.055 140.644 114.433 140.644H112.431C109.762 140.45 107.189 139.869 104.71 138.901C102.232 138.321 100.135 137.74 98.4191 137.159C96.7033 136.579 94.7969 135.708 92.6999 134.546C92.1279 134.159 91.27 133.772 90.1262 133.385C88.9823 132.804 87.0759 131.739 84.4069 130.191L80.9754 126.126L74.6842 119.158C74.1122 118.19 73.5403 116.932 72.9684 115.383C72.5871 113.834 72.0152 111.996 71.2526 109.866C70.8713 108.705 70.3947 107.447 69.8228 106.092C69.2509 104.737 68.7743 103.285 68.393 101.736V77.347C68.393 76.3791 68.5836 75.1209 68.9649 73.5724C69.5368 71.8303 69.8228 70.5721 69.8228 69.7978C69.8228 69.4107 69.9181 69.0236 70.1088 68.6364C70.1088 68.2493 70.1088 67.8622 70.1088 67.475C70.2994 67.0879 70.3947 66.604 70.3947 66.0232ZM96.5604 84.3517C97.5136 84.3517 98.3714 84.2549 99.134 84.0613C100.087 83.8677 101.04 83.2871 101.994 82.3192C102.375 81.545 102.47 80.7707 102.28 79.9964C102.28 79.0286 102.47 78.3511 102.852 77.964C103.805 76.4154 104.186 75.4476 103.995 75.0605C103.805 74.6733 103.709 73.9958 103.709 73.028C103.709 72.0602 103.328 70.8987 102.566 69.5438C101.994 67.9952 101.231 66.737 100.278 65.7692C99.3247 64.8014 98.6574 64.3174 98.2761 64.3174C97.8948 64.3174 96.6557 64.8014 94.5586 65.7692C93.2241 67.1242 92.5569 69.9309 92.5569 74.1894C92.5569 74.5765 92.4615 75.4476 92.2709 76.8026C92.2709 78.1575 92.4615 79.4157 92.8428 80.5771C92.8428 80.9643 93.3194 81.7385 94.2726 82.8999C95.2259 83.8678 95.9884 84.3517 96.5604 84.3517Z" fill="#2E6A44"/>
<path d="M68.393 101.736V77.347L41.7073 128.295L35.2391 140.644C45.7185 123.594 67.0203 91.9443 68.393 101.736Z" fill="#2E6A44"/>
<path d="M177.534 137.983C175.908 141.288 174.245 144.135 172.546 146.524C170.847 148.913 169.169 151.098 167.51 153.078C166.93 154.01 166.266 154.563 165.517 154.735C163.793 154.065 161.887 153.17 159.8 152.05C157.617 151.086 155.732 149.986 154.144 148.752C152.863 147.714 151.485 146.831 150.011 146.104C148.44 145.532 147.348 145.049 146.735 144.657C147.315 143.724 147.77 142.82 148.1 141.945C148.43 141.07 149.106 139.982 150.129 138.681C151.055 137.535 151.876 136.214 152.592 134.717C153.462 133.318 154.283 131.997 155.056 130.753L162.157 119.328C164.226 115.655 166.419 111.953 168.738 108.222C171.057 104.492 172.526 101.956 173.146 100.614C173.862 99.117 174.731 97.718 175.754 96.4171C176.93 95.2143 177.952 93.9134 178.822 92.5145C180.021 90.2402 181.297 88.015 182.65 85.8388C184.252 83.6052 185.729 81.4004 187.082 79.2242C188.241 77.3589 189.662 74.9005 191.345 71.849C193.124 68.6421 194.746 66.2041 196.212 64.5349C197.63 65.0088 199.257 65.8343 201.094 67.0114C202.931 68.1885 204.97 69.3859 207.21 70.6038C208.99 71.5274 210.723 72.5287 212.407 73.6077C214.091 74.6867 215.315 75.4714 216.081 75.9619C216.387 76.1581 216.174 76.6734 215.441 77.508C214.958 78.2852 214.62 78.8293 214.427 79.1402C211.858 82.9281 209.733 86.3478 208.05 89.3993C206.465 92.2954 204.552 95.1997 202.314 98.1124C200.535 101.319 198.844 104.04 197.242 106.273C195.889 108.449 194.094 110.994 191.856 113.906C191.566 114.373 190.793 115.616 189.537 117.637C188.281 119.658 186.909 122.038 185.419 124.779C184.027 127.364 182.557 129.9 181.012 132.387C179.562 134.719 178.403 136.584 177.534 137.983ZM194.389 52.7772C194.719 51.9019 195.367 50.6871 196.333 49.1327C197.452 47.6763 198.543 46.0932 199.606 44.3834C200.089 43.6062 200.447 42.8576 200.68 42.1377C201.067 41.516 201.453 40.8942 201.84 40.2724C202.033 39.9616 202.178 39.7284 202.274 39.5729C202.524 39.5156 202.745 39.3315 202.939 39.0206L219.473 49.6146C220.238 50.105 220.649 50.477 220.706 50.7306C220.859 50.8286 220.694 51.2663 220.211 52.0435L210.791 67.1991C209.776 66.766 208.273 65.9119 206.283 64.6367C204.446 63.4596 202.532 62.2334 200.542 60.9582C198.552 59.683 196.715 58.5059 195.031 57.4269C193.596 56.2905 192.976 55.5669 193.169 55.256C193.306 54.6916 193.712 53.8653 194.389 52.7772Z" fill="#12512E"/>
<path d="M166.835 142.875C168.355 140.105 169.779 136.851 171.107 133.112L174.13 126.689C175.474 123.834 176.73 120.936 177.898 117.996C179.149 114.878 180.321 112.159 181.413 109.839L183.429 105.557C185.46 102.159 187.063 99.2112 188.239 96.7133C189.674 94.1222 191.144 90.9997 192.648 87.346C194.679 83.948 196.362 80.6006 197.698 77.3037C199.118 73.8283 200.966 69.903 203.241 65.5276L204.123 63.6542C204.802 62.6689 204.967 62.091 204.615 61.9204L200.398 59.874C198.465 58.936 196.49 58.0872 194.473 57.3277C191.928 56.3124 189.602 55.2931 187.493 54.2698C185.385 53.2466 183.543 52.5723 181.969 52.247C180.61 54.2176 179.179 57.0298 177.675 60.6835C176.255 64.1589 175.041 66.9671 174.033 69.1082C172.857 71.6061 171.552 74.1506 170.116 76.7417C168.941 79.2397 167.853 81.7803 166.853 84.3635C166.097 85.9693 165.165 87.4899 164.058 88.9251C163.127 90.4457 162.371 92.0515 161.791 93.7426C161.295 95.2553 160.039 98.1527 158.023 102.435C156.008 106.717 154.122 110.953 152.366 115.142L144.052 132.806C143.472 134.497 142.758 136.014 141.911 137.356C140.979 138.876 140.391 140.125 140.147 141.103C139.903 142.08 139.529 143.104 139.025 144.174C139.728 144.516 140.954 144.891 142.703 145.302C144.369 145.891 145.951 146.658 147.448 147.604C149.297 148.721 151.448 149.655 153.9 150.406C156.269 151.336 158.416 152.049 160.341 152.545C161.12 152.266 161.762 151.591 162.265 150.52C163.793 148.193 165.316 145.644 166.835 142.875Z" fill="#2E6A44"/>
</g>
</g>
<defs>
<filter id="filter1_d_140_151" x="27.2391" y="33.375" width="201.522" height="193.792" filterUnits="userSpaceOnUse" color-interpolation-filters="sRGB">
<feFlood flood-opacity="0" result="BackgroundImageFix"/>
<feColorMatrix in="SourceAlpha" type="matrix" values="0 0 0 0 0 0 0 0 0 0 0 0 0 0 0 0 0 0 127 0" result="hardAlpha"/>
<feOffset dy="7"/>
<feGaussianBlur stdDeviation="4"/>
<feComposite in2="hardAlpha" operator="out"/>
<feColorMatrix type="matrix" values="0 0 0 0 0.219608 0 0 0 0 0.294118 0 0 0 0 0.235294 0 0 0 0.39 0"/>
<feBlend mode="normal" in2="BackgroundImageFix" result="effect1_dropShadow_140_151"/>
<feBlend mode="normal" in="SourceGraphic" in2="effect1_dropShadow_140_151" result="shape"/>
</filter>
<linearGradient id="paint0_linear_140_151" x1="128" y1="40" x2="128" y2="256" gradientUnits="userSpaceOnUse">
<stop stop-color="#D2E8D4"/>
<stop offset="1" stop-color="#96D5A6"/>
</linearGradient>
<clipPath id="clip0_140_151">
<rect width="256" height="256" rx="56" fill="white"/>
</clipPath>
</defs>
</svg>
